<svg width="19" height="16" viewBox="0 0 19 16" fill="none" xmlns="http://www.w3.org/2000/svg">
<path d="M6.17511 5.05244C9.70937 5.05244 12.3502 3.71874 12.3502 2.52619C12.3502 1.33376 9.70931 0 6.17511 0C2.6409 0 5.88201e-05 1.33376 5.88201e-05 2.52619C5.88201e-05 3.71874 2.64084 5.05244 6.17511 5.05244ZM6.17511 15.1578C6.69096 15.1578 7.18746 15.1291 7.65972 15.077C7.25857 14.5851 6.93081 14.0424 6.68578 13.4646C6.51632 13.47 6.34627 13.4738 6.17505 13.4738C4.15558 13.4738 2.2431 13.0918 0.790071 12.3983C0.50397 12.2617 0.240692 12.115 5.88201e-05 11.9597V12.6316C5.88201e-05 13.824 2.64084 15.1578 6.17511 15.1578ZM6.17511 11.7893C6.19322 11.7893 6.21104 11.7891 6.2291 11.789C6.19245 11.5096 6.17406 11.2282 6.17405 10.9466C6.17405 10.6615 6.19287 10.3805 6.2291 10.1047C6.21104 10.1047 6.19316 10.1053 6.17511 10.1053C4.15564 10.1053 2.24322 9.72335 0.79013 9.0298C0.50397 8.89324 0.240633 8.74653 0 8.59128V9.2631C5.88201e-05 10.4556 2.64084 11.7893 6.17511 11.7893ZM6.17511 8.42081C6.35015 8.42081 6.52285 8.41744 6.69337 8.41104C6.96546 7.77434 7.33792 7.18108 7.79783 6.65184C7.25896 6.70849 6.71724 6.73689 6.17511 6.7369C4.15564 6.7369 2.24322 6.35492 0.79013 5.66137C0.50397 5.52476 0.240633 5.3781 0 5.2228V5.89467C5.88201e-05 7.08716 2.64084 8.42081 6.17511 8.42081ZM8.82201 8.15506C8.43345 8.712 8.16532 9.33741 8.03335 9.9946C7.97034 10.3084 7.93865 10.6271 7.93871 10.9466C7.93871 11.1912 7.95741 11.4318 7.99276 11.6672C8.07793 12.2345 8.26434 12.7836 8.54391 13.2907C8.83101 13.8115 9.21067 14.2808 9.66596 14.6776C10.6076 15.4986 11.8598 16 13.2325 16C16.1515 16 18.5263 13.733 18.5263 10.9466C18.5263 8.16011 16.1515 5.89321 13.2325 5.89321C12.9308 5.89321 12.635 5.91781 12.3469 5.9643C10.8795 6.20119 9.61555 7.01641 8.82201 8.15506Z" fill="#298AFF"/>
</svg>
