<svg width="255" height="112" viewBox="0 0 255 112" fill="none" xmlns="http://www.w3.org/2000/svg">
<rect width="255" height="112" fill="white"/>
<path d="M7.74 108V103H9.02V103.665C9.15 103.478 9.3 103.325 9.47 103.205C9.64 103.085 9.82167 102.997 10.015 102.94C10.2083 102.88 10.4033 102.85 10.6 102.85C10.9933 102.85 11.325 102.937 11.595 103.11C11.865 103.283 12.0533 103.51 12.16 103.79C12.39 103.443 12.67 103.2 13 103.06C13.33 102.92 13.6683 102.85 14.015 102.85C14.485 102.85 14.8583 102.942 15.135 103.125C15.4117 103.308 15.61 103.543 15.73 103.83C15.85 104.117 15.91 104.417 15.91 104.73V108H14.63V105.1C14.63 104.777 14.5417 104.517 14.365 104.32C14.1917 104.12 13.9367 104.02 13.6 104.02C13.3833 104.02 13.1883 104.067 13.015 104.16C12.845 104.253 12.71 104.383 12.61 104.55C12.5133 104.713 12.465 104.9 12.465 105.11V108H11.185V105.1C11.185 104.777 11.0967 104.517 10.92 104.32C10.7467 104.12 10.4917 104.02 10.155 104.02C9.93833 104.02 9.74333 104.067 9.57 104.16C9.4 104.253 9.265 104.383 9.165 104.55C9.06833 104.713 9.02 104.9 9.02 105.11V108H7.74ZM17.3396 108V103H18.6196V108H17.3396ZM17.9796 102.16C17.7596 102.16 17.5696 102.09 17.4096 101.95C17.2496 101.81 17.1696 101.625 17.1696 101.395C17.1696 101.165 17.2496 100.98 17.4096 100.84C17.5696 100.7 17.7596 100.63 17.9796 100.63C18.1996 100.63 18.3896 100.7 18.5496 100.84C18.7096 100.98 18.7896 101.165 18.7896 101.395C18.7896 101.625 18.7096 101.81 18.5496 101.95C18.3896 102.09 18.1996 102.16 17.9796 102.16ZM20.0935 108V103H21.3735V103.6C21.5735 103.337 21.8068 103.147 22.0735 103.03C22.3435 102.91 22.6252 102.85 22.9185 102.85C23.3785 102.85 23.7585 102.942 24.0585 103.125C24.3618 103.308 24.5868 103.543 24.7335 103.83C24.8802 104.117 24.9535 104.417 24.9535 104.73V108H23.6735V105.13C23.6735 104.79 23.5752 104.52 23.3785 104.32C23.1818 104.12 22.9068 104.02 22.5535 104.02C22.3235 104.02 22.1185 104.072 21.9385 104.175C21.7618 104.275 21.6235 104.417 21.5235 104.6C21.4235 104.783 21.3735 104.995 21.3735 105.235V108H20.0935Z" fill="#D4D5D7"/>
<path d="M7.74 11V6H9.02V6.665C9.15 6.47833 9.3 6.325 9.47 6.205C9.64 6.085 9.82167 5.99667 10.015 5.94C10.2083 5.88 10.4033 5.85 10.6 5.85C10.9933 5.85 11.325 5.93667 11.595 6.11C11.865 6.28333 12.0533 6.51 12.16 6.79C12.39 6.44333 12.67 6.2 13 6.06C13.33 5.92 13.6683 5.85 14.015 5.85C14.485 5.85 14.8583 5.94167 15.135 6.125C15.4117 6.30833 15.61 6.54333 15.73 6.83C15.85 7.11667 15.91 7.41667 15.91 7.73V11H14.63V8.1C14.63 7.77667 14.5417 7.51667 14.365 7.32C14.1917 7.12 13.9367 7.02 13.6 7.02C13.3833 7.02 13.1883 7.06667 13.015 7.16C12.845 7.25333 12.71 7.38333 12.61 7.55C12.5133 7.71333 12.465 7.9 12.465 8.11V11H11.185V8.1C11.185 7.77667 11.0967 7.51667 10.92 7.32C10.7467 7.12 10.4917 7.02 10.155 7.02C9.93833 7.02 9.74333 7.06667 9.57 7.16C9.4 7.25333 9.265 7.38333 9.165 7.55C9.06833 7.71333 9.02 7.9 9.02 8.11V11H7.74ZM19.4396 11.15C18.9496 11.15 18.5146 11.0367 18.1346 10.81C17.7579 10.5833 17.4613 10.27 17.2446 9.87C17.0279 9.47 16.9196 9.01333 16.9196 8.5C16.9196 8.11333 16.9813 7.75833 17.1046 7.435C17.2279 7.11167 17.4013 6.83167 17.6246 6.595C17.8513 6.35833 18.1179 6.175 18.4246 6.045C18.7346 5.915 19.0729 5.85 19.4396 5.85C19.9229 5.85 20.3296 5.95333 20.6596 6.16C20.9896 6.36667 21.2363 6.635 21.3996 6.965L21.2196 7.24V6H22.3446V11H21.2196V9.76L21.3996 10.035C21.2363 10.365 20.9896 10.6333 20.6596 10.84C20.3296 11.0467 19.9229 11.15 19.4396 11.15ZM19.6296 10.03C19.9063 10.03 20.1529 9.96833 20.3696 9.845C20.5863 9.71833 20.7579 9.54167 20.8846 9.315C21.0113 9.085 21.0746 8.81333 21.0746 8.5C21.0746 8.18667 21.0113 7.915 20.8846 7.685C20.7579 7.455 20.5863 7.27833 20.3696 7.155C20.1529 7.03167 19.9063 6.97 19.6296 6.97C19.3529 6.97 19.1046 7.03167 18.8846 7.155C18.6679 7.27833 18.4963 7.455 18.3696 7.685C18.2463 7.915 18.1846 8.18667 18.1846 8.5C18.1846 8.81333 18.2463 9.085 18.3696 9.315C18.4963 9.54167 18.6679 9.71833 18.8846 9.845C19.1046 9.96833 19.3529 10.03 19.6296 10.03ZM23.224 11.01L25.029 8.505L23.324 6H24.939L25.914 7.605L26.859 6H28.434L26.779 8.475L28.569 11H26.929L25.869 9.36L24.794 10.99L23.224 11.01Z" fill="#D4D5D7"/>
<path d="M2 94.5464C29.5 94.5464 52 94.5464 90 74.5001C117.279 60.1093 137.958 14.5464 162 14.5464C199 14.5464 219.5 74.5001 249.5 74.5001" stroke="#298AFF" stroke-width="2"/>
<path d="M138.5 27C123.299 41.5799 108.103 64.8572 90 74.407V105.5H138.5V27Z" fill="url(#paint0_linear_7_2)" fill-opacity="0.7"/>
<path d="M2 5L2 108" stroke="#9B9DA2" stroke-width="0.5"/>
<circle cx="90.5" cy="74.5" r="4.5" fill="#298AFF"/>
<circle cx="90.5" cy="74.5" r="2.5" fill="white"/>
<circle cx="138.5" cy="27.5" r="4.5" fill="#298AFF"/>
<circle cx="138.5" cy="27.5" r="2.5" fill="white"/>
<path fill-rule="evenodd" clip-rule="evenodd" d="M28 22C25.7909 22 24 23.7909 24 26V35C24 37.2091 25.7909 39 28 39H102V39C105.893 39 107.463 33.7124 110.148 30.8939L110.343 30.6897C110.711 30.3035 110.711 29.6965 110.343 29.3103L108.87 27.7646C106.752 25.5412 105.071 22 102 22V22H28Z" fill="#298AFF"/>
<path d="M35.11 33.15C34.3867 33.15 33.7533 33 33.21 32.7C32.67 32.3967 32.25 31.9717 31.95 31.425C31.6533 30.875 31.505 30.2333 31.505 29.5C31.505 28.97 31.5933 28.4833 31.77 28.04C31.9467 27.5933 32.1967 27.2067 32.52 26.88C32.8433 26.5533 33.225 26.3 33.665 26.12C34.1083 25.94 34.5917 25.85 35.115 25.85C35.6317 25.85 36.0833 25.915 36.47 26.045C36.8567 26.1717 37.19 26.3533 37.47 26.59L36.97 27.36C36.7433 27.1567 36.48 27.005 36.18 26.905C35.88 26.805 35.5483 26.755 35.185 26.755C34.775 26.755 34.4033 26.8183 34.07 26.945C33.7367 27.0717 33.4517 27.255 33.215 27.495C32.9817 27.7317 32.8017 28.0183 32.675 28.355C32.5483 28.6917 32.485 29.07 32.485 29.49C32.485 30.07 32.5967 30.565 32.82 30.975C33.0467 31.385 33.3667 31.6983 33.78 31.915C34.1933 32.1283 34.6817 32.235 35.245 32.235C35.6083 32.235 35.9567 32.1817 36.29 32.075C36.6267 31.965 36.9417 31.7867 37.235 31.54L37.675 32.34C37.3317 32.61 36.9467 32.8133 36.52 32.95C36.0967 33.0833 35.6267 33.15 35.11 33.15ZM38.7677 35.1V28.1H39.6127V28.835C39.816 28.575 40.071 28.3633 40.3777 28.2C40.6877 28.0333 41.0777 27.95 41.5477 27.95C42.0343 27.95 42.4627 28.065 42.8327 28.295C43.2027 28.5217 43.491 28.8317 43.6977 29.225C43.9077 29.6183 44.0127 30.06 44.0127 30.55C44.0127 30.9067 43.9527 31.2433 43.8327 31.56C43.716 31.8733 43.5477 32.15 43.3277 32.39C43.1077 32.6267 42.846 32.8133 42.5427 32.95C42.2427 33.0833 41.9077 33.15 41.5377 33.15C41.1243 33.15 40.7627 33.0733 40.4527 32.92C40.146 32.7633 39.8893 32.5583 39.6827 32.305V35.1H38.7677ZM41.3827 32.32C41.7127 32.32 42.0043 32.2483 42.2577 32.105C42.5143 31.9583 42.7143 31.7533 42.8577 31.49C43.0043 31.2233 43.0777 30.91 43.0777 30.55C43.0777 30.1867 43.0043 29.8733 42.8577 29.61C42.7143 29.3433 42.5143 29.1383 42.2577 28.995C42.0043 28.8517 41.7127 28.78 41.3827 28.78C41.0527 28.78 40.7593 28.8517 40.5027 28.995C40.2493 29.1383 40.0493 29.3433 39.9027 29.61C39.756 29.8733 39.6827 30.1867 39.6827 30.55C39.6827 30.91 39.756 31.2233 39.9027 31.49C40.0493 31.7533 40.2493 31.9583 40.5027 32.105C40.7593 32.2483 41.0527 32.32 41.3827 32.32ZM47.418 33.15C46.898 33.15 46.4396 33.0417 46.043 32.825C45.6463 32.6083 45.3363 32.3067 45.113 31.92C44.8896 31.53 44.778 31.0767 44.778 30.56C44.778 30.1867 44.8413 29.84 44.968 29.52C45.098 29.2 45.278 28.9233 45.508 28.69C45.7413 28.4567 46.013 28.275 46.323 28.145C46.6363 28.015 46.9763 27.95 47.343 27.95C47.7396 27.95 48.093 28.02 48.403 28.16C48.7163 28.3 48.9746 28.4967 49.178 28.75C49.3846 29 49.533 29.295 49.623 29.635C49.713 29.9717 49.7313 30.3383 49.678 30.735H45.688C45.678 31.0617 45.7446 31.3483 45.888 31.595C46.0313 31.8383 46.238 32.0283 46.508 32.165C46.7813 32.3017 47.1046 32.37 47.478 32.37C47.7513 32.37 48.018 32.3267 48.278 32.24C48.538 32.1533 48.768 32.025 48.968 31.855L49.358 32.54C49.198 32.67 49.008 32.7817 48.788 32.875C48.5713 32.965 48.3446 33.0333 48.108 33.08C47.8713 33.1267 47.6413 33.15 47.418 33.15ZM45.738 30.02H48.758C48.7446 29.6067 48.6163 29.285 48.373 29.055C48.1296 28.8217 47.7813 28.705 47.328 28.705C46.888 28.705 46.5246 28.8217 46.238 29.055C45.9513 29.285 45.7846 29.6067 45.738 30.02ZM54.4673 33V28.88H52.2923V29.635C52.2923 30.105 52.2673 30.5233 52.2173 30.89C52.1673 31.2533 52.0789 31.5683 51.9523 31.835C51.8256 32.0983 51.6473 32.315 51.4173 32.485C51.1906 32.655 50.8989 32.78 50.5423 32.86L50.2823 32.255C50.6056 32.1717 50.8473 32.0267 51.0073 31.82C51.1706 31.61 51.2806 31.3267 51.3373 30.97C51.3939 30.61 51.4223 30.165 51.4223 29.635V28.1H55.3873V33H54.4673ZM50.2823 34.5V32.255L50.9073 32.32L51.0473 32.22H56.3773V34.5H55.5323V33H51.1273V34.5H50.2823ZM57.4005 33V28.1H58.3205V30.03H60.9755V28.1H61.8955V33H60.9755V30.81H58.3205V33H57.4005ZM63.1545 33L65.0995 30.525L65.2745 31.135C64.8545 31.1383 64.5028 31.0783 64.2195 30.955C63.9361 30.8317 63.7211 30.6583 63.5745 30.435C63.4311 30.2083 63.3595 29.9433 63.3595 29.64C63.3595 29.3167 63.4428 29.04 63.6095 28.81C63.7795 28.58 64.0161 28.405 64.3195 28.285C64.6261 28.1617 64.9828 28.1 65.3895 28.1H67.4095V33H66.5145V28.83H65.4695C65.0795 28.83 64.7861 28.895 64.5895 29.025C64.3928 29.155 64.2945 29.3533 64.2945 29.62C64.2945 29.8833 64.3861 30.085 64.5695 30.225C64.7528 30.3617 65.0228 30.43 65.3795 30.43H66.6545V31.135H65.6845L64.2295 33H63.1545ZM68.672 33L70.617 30.525L70.792 31.135C70.372 31.1383 70.0204 31.0783 69.737 30.955C69.4537 30.8317 69.2387 30.6583 69.092 30.435C68.9487 30.2083 68.877 29.9433 68.877 29.64C68.877 29.3167 68.9604 29.04 69.127 28.81C69.297 28.58 69.5337 28.405 69.837 28.285C70.1437 28.1617 70.5004 28.1 70.907 28.1H72.927V33H72.032V28.83H70.987C70.597 28.83 70.3037 28.895 70.107 29.025C69.9104 29.155 69.812 29.3533 69.812 29.62C69.812 29.8833 69.9037 30.085 70.087 30.225C70.2704 30.3617 70.5404 30.43 70.897 30.43H72.172V31.135H71.202L69.747 33H68.672ZM77.0196 33V28.1H77.9396V32.22H80.4946V28.1H81.4146V33H77.0196ZM81.8096 34.5V33H80.9146V32.22H82.6546V34.5H81.8096ZM85.7969 33.15C85.2769 33.15 84.8185 33.0417 84.4219 32.825C84.0252 32.6083 83.7152 32.3067 83.4919 31.92C83.2685 31.53 83.1569 31.0767 83.1569 30.56C83.1569 30.1867 83.2202 29.84 83.3469 29.52C83.4769 29.2 83.6569 28.9233 83.8869 28.69C84.1202 28.4567 84.3919 28.275 84.7019 28.145C85.0152 28.015 85.3552 27.95 85.7219 27.95C86.1185 27.95 86.4719 28.02 86.7819 28.16C87.0952 28.3 87.3535 28.4967 87.5569 28.75C87.7635 29 87.9119 29.295 88.0019 29.635C88.0919 29.9717 88.1102 30.3383 88.0569 30.735H84.0669C84.0569 31.0617 84.1235 31.3483 84.2669 31.595C84.4102 31.8383 84.6169 32.0283 84.8869 32.165C85.1602 32.3017 85.4835 32.37 85.8569 32.37C86.1302 32.37 86.3969 32.3267 86.6569 32.24C86.9169 32.1533 87.1469 32.025 87.3469 31.855L87.7369 32.54C87.5769 32.67 87.3869 32.7817 87.1669 32.875C86.9502 32.965 86.7235 33.0333 86.4869 33.08C86.2502 33.1267 86.0202 33.15 85.7969 33.15ZM84.1169 30.02H87.1369C87.1235 29.6067 86.9952 29.285 86.7519 29.055C86.5085 28.8217 86.1602 28.705 85.7069 28.705C85.2669 28.705 84.9035 28.8217 84.6169 29.055C84.3302 29.285 84.1635 29.6067 84.1169 30.02ZM89.2462 33V28.1H90.1662V30.03H92.8212V28.1H93.7412V33H92.8212V30.81H90.1662V33H89.2462ZM97.4152 33.15C96.9218 33.15 96.4852 33.035 96.1052 32.805C95.7252 32.575 95.4285 32.265 95.2152 31.875C95.0018 31.4817 94.8952 31.04 94.8952 30.55C94.8952 30.1833 94.9568 29.8417 95.0802 29.525C95.2035 29.2083 95.3768 28.9333 95.6002 28.7C95.8235 28.4633 96.0885 28.28 96.3952 28.15C96.7052 28.0167 97.0452 27.95 97.4152 27.95C97.9085 27.95 98.3185 28.0533 98.6452 28.26C98.9718 28.4667 99.2268 28.73 99.4102 29.05L99.2752 29.25V28.1H100.115V33H99.2752V31.85L99.4102 32.045C99.2268 32.365 98.9718 32.63 98.6452 32.84C98.3185 33.0467 97.9085 33.15 97.4152 33.15ZM97.5152 32.32C97.8418 32.32 98.1318 32.2483 98.3852 32.105C98.6385 31.9583 98.8368 31.7533 98.9802 31.49C99.1268 31.2233 99.2002 30.91 99.2002 30.55C99.2002 30.1867 99.1268 29.8733 98.9802 29.61C98.8368 29.3433 98.6385 29.1383 98.3852 28.995C98.1318 28.8517 97.8418 28.78 97.5152 28.78C97.1885 28.78 96.8985 28.8517 96.6452 28.995C96.3918 29.1383 96.1918 29.3433 96.0452 29.61C95.8985 29.8733 95.8252 30.1867 95.8252 30.55C95.8252 30.91 95.8985 31.2233 96.0452 31.49C96.1918 31.7533 96.3918 31.9583 96.6452 32.105C96.8985 32.2483 97.1885 32.32 97.5152 32.32Z" fill="white"/>
<defs>
<linearGradient id="paint0_linear_7_2" x1="114.25" y1="27" x2="114.25" y2="105.5" gradientUnits="userSpaceOnUse">
<stop stop-color="#298AFF"/>
<stop offset="1" stop-color="#298AFF" stop-opacity="0"/>
</linearGradient>
</defs>
</svg>
